<?xml version="1.0" encoding="UTF-8"?>
<!-- Generator: Adobe Illustrator 16.0.0, SVG Export Plug-In . SVG Version: 6.00 Build 0)  -->
<!DOCTYPE svg PUBLIC "-//W3C//DTD SVG 1.1//EN" "http://www.w3.org/Graphics/SVG/1.1/DTD/svg11.dtd">
<svg version="1.1" id="Calque_1" xmlns="http://www.w3.org/2000/svg" xmlns:xlink="http://www.w3.org/1999/xlink" x="0px" y="0px" width="679.087px" height="454.219px" viewBox="0 0 679.087 454.219" enable-background="new 0 0 679.087 454.219" xml:space="preserve">
<g>
	<rect x="1.777" fill="#AF001E" width="677.31" height="454.219"/>
	<g>
		<path fill="#FFFFFF" d="M159.816,223.856l-3.444,14.158c-1.147,4.21-1.147,6.123-1.147,7.271c0,3.444,1.147,6.123,3.443,9.949    l39.797,71.558c3.444,5.74,6.123,8.036,14.158,8.036h36.354c4.592,0,10.331-3.062,4.975-11.479l-48.981-81.124    c16.455-10.332,34.822-25.256,34.822-57.399c0-41.71-23.342-65.435-75.001-65.435H90.172c-6.505,0-8.801,2.296-8.801,9.184v197.07    c0,6.888,1.913,9.184,8.801,9.184h30.613c6.888,0,8.801-2.296,8.801-9.184V159.569h31.761c19.898,0,29.848,7.271,29.848,26.021    c0,17.22-7.653,22.577-15.307,25.638C166.321,215.438,162.878,211.229,159.816,223.856z"/>
		<path fill="#FFFFFF" d="M322.83,326.027c0,6.888,1.913,9.184,8.801,9.184h30.613c6.505,0,8.801-2.296,8.801-9.184v-165.31h57.017    c6.888,0,8.801-2.296,8.801-9.184v-22.96c0-6.505-1.913-9.184-8.801-9.184H265.813c-6.888,0-8.802,2.296-8.802,9.184v22.96    c0,6.505,1.914,9.184,8.802,9.184h57.017V326.027z"/>
		<path fill="#FFFFFF" d="M455.613,300.389l-4.21,25.639c-0.765,4.975,1.531,6.888,6.123,7.653    c9.566,1.147,34.057,3.061,57.781,3.061c53.19,0,92.222-17.22,92.222-66.966c0-29.082-12.628-50.894-57.017-62.373l-24.873-6.506    c-16.837-4.209-24.49-9.566-24.49-22.193c0-17.221,16.072-20.664,31.378-20.664c20.664,0,41.711,1.53,50.129,2.296    c8.801,0.766,11.098-0.383,12.245-7.653l3.827-25.255c0.765-4.975-1.531-6.888-6.123-7.653    c-9.566-1.531-30.995-3.062-58.164-3.062c-55.104,0-81.89,24.108-81.89,62.374c0,34.439,18.75,54.721,51.276,63.14l24.873,6.505    c20.281,5.357,29.082,11.479,29.082,24.107c0,18.751-12.627,22.194-43.623,22.194c-14.158,0-38.648-1.913-46.685-2.679    C459.439,291.971,457.144,293.118,455.613,300.389z"/>
	</g>
</g>
</svg>